<mxfile host="app.diagrams.net" agent="Mozilla/5.0 (Windows NT 10.0; Win64; x64) AppleWebKit/537.36 (KHTML, like Gecko) Chrome/130.0.0.0 Safari/537.36 Edg/130.0.0.0" version="24.7.17">
  <diagram name="Page-1" id="hqSrXdp1mEwyXaSWoCSs">
    <mxGraphModel dx="1282" dy="623" grid="1" gridSize="10" guides="1" tooltips="1" connect="1" arrows="1" fold="1" page="1" pageScale="1" pageWidth="850" pageHeight="1100" math="0" shadow="0">
      <root>
        <mxCell id="0" />
        <mxCell id="1" parent="0" />
        <mxCell id="rvtOfTKN0iLYZiIFmJA_-21" style="edgeStyle=none;curved=1;rounded=0;orthogonalLoop=1;jettySize=auto;html=1;entryX=0;entryY=0.5;entryDx=0;entryDy=0;fontSize=12;startSize=8;endSize=8;" edge="1" parent="1" source="Jwh8wSRyzfjKND-0c__q-1" target="rvtOfTKN0iLYZiIFmJA_-2">
          <mxGeometry relative="1" as="geometry" />
        </mxCell>
        <mxCell id="rvtOfTKN0iLYZiIFmJA_-22" style="edgeStyle=none;curved=1;rounded=0;orthogonalLoop=1;jettySize=auto;html=1;entryX=0;entryY=0.5;entryDx=0;entryDy=0;fontSize=12;startSize=8;endSize=8;" edge="1" parent="1" source="Jwh8wSRyzfjKND-0c__q-1" target="Jwh8wSRyzfjKND-0c__q-7">
          <mxGeometry relative="1" as="geometry" />
        </mxCell>
        <mxCell id="Jwh8wSRyzfjKND-0c__q-1" value="&lt;div&gt;(MVC)&lt;/div&gt;Gateway&lt;div&gt;:7777&lt;/div&gt;" style="rounded=0;whiteSpace=wrap;html=1;" parent="1" vertex="1">
          <mxGeometry x="70" y="490" width="120" height="60" as="geometry" />
        </mxCell>
        <mxCell id="Jwh8wSRyzfjKND-0c__q-2" value="Angular&amp;nbsp; Application" style="rounded=0;whiteSpace=wrap;html=1;" parent="1" vertex="1">
          <mxGeometry x="70" y="310" width="120" height="60" as="geometry" />
        </mxCell>
        <mxCell id="Jwh8wSRyzfjKND-0c__q-4" value=".NET Identity" style="rounded=1;whiteSpace=wrap;html=1;" parent="1" vertex="1">
          <mxGeometry x="325" y="220" width="120" height="60" as="geometry" />
        </mxCell>
        <mxCell id="Jwh8wSRyzfjKND-0c__q-5" value="Crime Related Safety" style="rounded=0;whiteSpace=wrap;html=1;" parent="1" vertex="1">
          <mxGeometry x="410" y="350" width="120" height="60" as="geometry" />
        </mxCell>
        <mxCell id="Jwh8wSRyzfjKND-0c__q-6" value="Accident &amp;amp;Hazard Related Safety" style="rounded=0;whiteSpace=wrap;html=1;" parent="1" vertex="1">
          <mxGeometry x="410" y="450" width="120" height="60" as="geometry" />
        </mxCell>
        <mxCell id="rvtOfTKN0iLYZiIFmJA_-19" style="edgeStyle=none;curved=1;rounded=0;orthogonalLoop=1;jettySize=auto;html=1;entryX=0;entryY=0.5;entryDx=0;entryDy=0;fontSize=12;startSize=8;endSize=8;" edge="1" parent="1" source="Jwh8wSRyzfjKND-0c__q-7" target="rvtOfTKN0iLYZiIFmJA_-17">
          <mxGeometry relative="1" as="geometry" />
        </mxCell>
        <mxCell id="rvtOfTKN0iLYZiIFmJA_-20" style="edgeStyle=none;curved=1;rounded=0;orthogonalLoop=1;jettySize=auto;html=1;entryX=0;entryY=0.5;entryDx=0;entryDy=0;fontSize=12;startSize=8;endSize=8;" edge="1" parent="1" source="Jwh8wSRyzfjKND-0c__q-7" target="rvtOfTKN0iLYZiIFmJA_-18">
          <mxGeometry relative="1" as="geometry" />
        </mxCell>
        <mxCell id="Jwh8wSRyzfjKND-0c__q-7" value="Health" style="rounded=0;whiteSpace=wrap;html=1;" parent="1" vertex="1">
          <mxGeometry x="260" y="600" width="120" height="60" as="geometry" />
        </mxCell>
        <mxCell id="rvtOfTKN0iLYZiIFmJA_-3" style="edgeStyle=none;curved=1;rounded=0;orthogonalLoop=1;jettySize=auto;html=1;entryX=0;entryY=0.5;entryDx=0;entryDy=0;fontSize=12;startSize=8;endSize=8;" edge="1" parent="1" source="rvtOfTKN0iLYZiIFmJA_-2" target="Jwh8wSRyzfjKND-0c__q-5">
          <mxGeometry relative="1" as="geometry" />
        </mxCell>
        <mxCell id="rvtOfTKN0iLYZiIFmJA_-4" style="edgeStyle=none;curved=1;rounded=0;orthogonalLoop=1;jettySize=auto;html=1;entryX=0;entryY=0.5;entryDx=0;entryDy=0;fontSize=12;startSize=8;endSize=8;" edge="1" parent="1" source="rvtOfTKN0iLYZiIFmJA_-2" target="Jwh8wSRyzfjKND-0c__q-6">
          <mxGeometry relative="1" as="geometry" />
        </mxCell>
        <mxCell id="rvtOfTKN0iLYZiIFmJA_-2" value="Safety" style="rounded=0;whiteSpace=wrap;html=1;" vertex="1" parent="1">
          <mxGeometry x="260" y="390" width="120" height="60" as="geometry" />
        </mxCell>
        <mxCell id="rvtOfTKN0iLYZiIFmJA_-7" value="" style="endArrow=none;html=1;rounded=0;fontSize=12;startSize=8;endSize=8;curved=1;entryX=0.5;entryY=1;entryDx=0;entryDy=0;exitX=0.5;exitY=0;exitDx=0;exitDy=0;" edge="1" parent="1" source="Jwh8wSRyzfjKND-0c__q-1" target="Jwh8wSRyzfjKND-0c__q-2">
          <mxGeometry width="50" height="50" relative="1" as="geometry">
            <mxPoint x="40" y="440" as="sourcePoint" />
            <mxPoint x="90" y="390" as="targetPoint" />
          </mxGeometry>
        </mxCell>
        <mxCell id="rvtOfTKN0iLYZiIFmJA_-8" value="" style="endArrow=none;html=1;rounded=0;fontSize=12;startSize=8;endSize=8;curved=1;exitX=0.5;exitY=0;exitDx=0;exitDy=0;" edge="1" parent="1">
          <mxGeometry width="50" height="50" relative="1" as="geometry">
            <mxPoint x="129.5" y="310" as="sourcePoint" />
            <mxPoint x="129.92000000000002" y="250" as="targetPoint" />
          </mxGeometry>
        </mxCell>
        <mxCell id="rvtOfTKN0iLYZiIFmJA_-12" value="" style="endArrow=none;html=1;rounded=0;fontSize=12;startSize=8;endSize=8;curved=1;entryX=0;entryY=0.5;entryDx=0;entryDy=0;" edge="1" parent="1" target="Jwh8wSRyzfjKND-0c__q-4">
          <mxGeometry width="50" height="50" relative="1" as="geometry">
            <mxPoint x="130" y="250" as="sourcePoint" />
            <mxPoint x="130" y="200" as="targetPoint" />
          </mxGeometry>
        </mxCell>
        <mxCell id="rvtOfTKN0iLYZiIFmJA_-17" value="Mental Healt" style="rounded=0;whiteSpace=wrap;html=1;" vertex="1" parent="1">
          <mxGeometry x="410" y="550" width="120" height="60" as="geometry" />
        </mxCell>
        <mxCell id="rvtOfTKN0iLYZiIFmJA_-18" value="Well Being" style="rounded=0;whiteSpace=wrap;html=1;" vertex="1" parent="1">
          <mxGeometry x="410" y="650" width="120" height="60" as="geometry" />
        </mxCell>
      </root>
    </mxGraphModel>
  </diagram>
</mxfile>
